<svg xmlns="http://www.w3.org/2000/svg" viewBox="0 0 110 110"><defs><style>.cls-1{fill:#ff9aa2;stroke:#fff;stroke-miterlimit:10;stroke-width:10px;}.cls-2{fill:#fff;}.cls-3{fill:#ea8896;}</style></defs><title>edit_button</title><g id="Layer_2" data-name="Layer 2"><g id="Layer_1-2" data-name="Layer 1"><rect class="cls-1" x="5" y="5" width="100" height="100" rx="25" ry="25"/><rect class="cls-2" x="23" y="16" width="12.36" height="8" rx="3.93" ry="3.93" transform="translate(58.36 40) rotate(180)"/><rect class="cls-2" x="40.45" y="16" width="28.36" height="8" rx="3.93" ry="3.93" transform="translate(109.27 40) rotate(180)"/><rect class="cls-3" x="75.45" y="86" width="12.36" height="8" rx="3.93" ry="3.93"/><rect class="cls-3" x="42" y="86" width="28.36" height="8" rx="3.93" ry="3.93"/><path d="M59.94,40.25,36.81,63.39a.92.92,0,0,0-.24.42L34,74.1a.91.91,0,0,0,.88,1.13l.22,0L45.4,72.64a.91.91,0,0,0,.42-.24L69,49.27Z"/><path d="M74.69,37.1l-2.58-2.58a4.66,4.66,0,0,0-6.44,0l-3.15,3.15,9,9,3.15-3.15a4.55,4.55,0,0,0,0-6.44Z"/></g></g></svg>