<svg xmlns="http://www.w3.org/2000/svg" viewBox="0 0 160 160"><defs><style>.cls-1{fill:#ff9aa2;stroke:#fff;stroke-miterlimit:10;stroke-width:10px;}.cls-2{fill:#fff;}.cls-3{fill:#ea8896;}</style></defs><title>help_button</title><g id="Layer_2" data-name="Layer 2"><g id="Layer_1-2" data-name="Layer 1"><rect class="cls-1" x="5" y="5" width="150" height="150" rx="50" ry="50"/><path d="M63.86,71.6c.06-8.88,7.56-12.84,16-12.84S96.14,62.42,96,71.42c0,8.7-8,9.6-11.46,11.94-1.62,1.08-2.28,2.76-2.28,5.58l-7.92-.06c.06-8.22,3.42-10.08,6.6-11.76s6.84-2.16,6.84-5.76c0-4.62-4.26-5.7-8-5.7S72,67.82,71.9,71.6ZM83,96.5c0,6.3-9.6,6.3-9.6,0S83,90.14,83,96.5Z"/><rect class="cls-2" x="36" y="24" width="17" height="11" rx="5.5" ry="5.5" transform="translate(89 59) rotate(180)"/><rect class="cls-2" x="60" y="24" width="39" height="11" rx="5.5" ry="5.5" transform="translate(159 59) rotate(180)"/><rect class="cls-3" x="106" y="125" width="17" height="11" rx="5.5" ry="5.5"/><rect class="cls-3" x="60" y="125" width="39" height="11" rx="5.5" ry="5.5"/></g></g></svg>