<svg xmlns="http://www.w3.org/2000/svg" xmlns:xlink="http://www.w3.org/1999/xlink" viewBox="0 0 178.56 237.38"><defs><style>.cls-1{fill:none;}.cls-2{fill:#dd3e3a;stroke:#fff;stroke-miterlimit:10;stroke-width:10px;}.cls-3{clip-path:url(#clip-path);}.cls-4{fill:#e86767;}.cls-5{fill:#eab0c1;}.cls-6{fill:#f2c78f;}.cls-7{fill:#80e8a6;}.cls-8{fill:#b0e2e0;}.cls-9{fill:#7bbad6;}.cls-10{fill:#fff;}</style><clipPath id="clip-path"><rect class="cls-1" x="17.24" y="47.53" width="144" height="143" rx="50" ry="50"/></clipPath></defs><title>change_theme_button</title><g id="Layer_2" data-name="Layer 2"><g id="Layer_1-2" data-name="Layer 1"><rect class="cls-2" x="14.24" y="43.53" width="150" height="150" rx="50" ry="50"/><g class="cls-3"><rect class="cls-4" width="29.76" height="237.38"/><rect class="cls-5" x="29.76" width="29.76" height="237.38"/><rect class="cls-6" x="59.52" width="29.76" height="237.38"/><rect class="cls-7" x="89.28" width="29.76" height="237.38"/><rect class="cls-8" x="119.04" width="29.76" height="237.38"/><rect class="cls-9" x="148.8" width="29.76" height="237.38"/></g><rect class="cls-10" x="45.24" y="62.53" width="17" height="11" rx="5.5" ry="5.5" transform="translate(107.48 136.05) rotate(180)"/><rect class="cls-10" x="69.24" y="62.53" width="39" height="11" rx="5.5" ry="5.5" transform="translate(177.48 136.05) rotate(180)"/><rect class="cls-10" x="115.24" y="163.53" width="17" height="11" rx="5.5" ry="5.5"/><rect class="cls-10" x="69.24" y="163.53" width="39" height="11" rx="5.5" ry="5.5"/><path d="M111.25,98.27a1,1,0,0,0-1.09.22L106,102.65a23.23,23.23,0,0,0-16.78-7.12,23.46,23.46,0,0,0-22.73,17.62,1,1,0,0,0,1,1.25h6.37a1,1,0,0,0,.94-.66,15.35,15.35,0,0,1,14.44-10.13,15.23,15.23,0,0,1,11.08,4.75l-4.22,4.22a1,1,0,0,0,.71,1.71h14.09a1,1,0,0,0,1-1V99.2A1,1,0,0,0,111.25,98.27Z"/><path d="M110.61,123.69h-6.38a1,1,0,0,0-.94.67,15.35,15.35,0,0,1-14.44,10.12,15.22,15.22,0,0,1-11.08-4.75L82,125.51a1,1,0,0,0-.71-1.71H67.21a1,1,0,0,0-1,1v14.09a1,1,0,0,0,1.71.71l4.16-4.16a23.23,23.23,0,0,0,16.78,7.12,23.46,23.46,0,0,0,22.73-17.62,1,1,0,0,0-1-1.25Z"/></g></g></svg>