<svg xmlns="http://www.w3.org/2000/svg" xmlns:xlink="http://www.w3.org/1999/xlink" viewBox="0 0 160 160"><defs><style>.cls-1{fill:none;}.cls-2,.cls-4{fill:#dd3e3a;}.cls-2{stroke:#fff;stroke-miterlimit:10;stroke-width:10px;}.cls-3{clip-path:url(#clip-path);}.cls-5{fill:#d6a5a8;}.cls-6{fill:#e5c698;}.cls-7{fill:#a1d3b9;}.cls-8{fill:#58b1c6;}.cls-9{fill:#047abc;}.cls-10{fill:#fff;}</style><clipPath id="clip-path"><rect class="cls-1" x="7" y="9" width="145" height="143" rx="50" ry="50"/></clipPath></defs><title>change_theme_button</title><g id="Layer_2" data-name="Layer 2"><g id="Layer_1-2" data-name="Layer 1"><rect class="cls-2" x="5" y="5" width="150" height="150" rx="50" ry="50"/><g class="cls-3"><rect class="cls-4" x="7" y="9" width="24.17" height="143"/><rect class="cls-5" x="31.17" y="9" width="24.17" height="143"/><rect class="cls-6" x="55.33" y="9" width="24.17" height="143"/><rect class="cls-7" x="79.5" y="9" width="24.17" height="143"/><rect class="cls-8" x="103.67" y="9" width="24.17" height="143"/><rect class="cls-9" x="127.83" y="9" width="24.17" height="143"/></g><rect class="cls-10" x="36" y="24" width="17" height="11" rx="5.5" ry="5.5" transform="translate(89 59) rotate(180)"/><rect class="cls-10" x="60" y="24" width="39" height="11" rx="5.5" ry="5.5" transform="translate(159 59) rotate(180)"/><rect class="cls-10" x="106" y="125" width="17" height="11" rx="5.5" ry="5.5"/><rect class="cls-10" x="60" y="125" width="39" height="11" rx="5.5" ry="5.5"/><path d="M103,58.75a1,1,0,0,0-1.09.22l-4.16,4.16A23.23,23.23,0,0,0,81,56,23.46,23.46,0,0,0,58.25,73.62a1,1,0,0,0,1,1.25h6.37a1,1,0,0,0,.94-.66A15.35,15.35,0,0,1,81,64.08a15.23,15.23,0,0,1,11.08,4.75l-4.22,4.22a1,1,0,0,0,.71,1.71h14.09a1,1,0,0,0,1-1V59.67A1,1,0,0,0,103,58.75Z"/><path d="M102.37,84.16H96a1,1,0,0,0-.94.67A15.35,15.35,0,0,1,80.62,95,15.22,15.22,0,0,1,69.54,90.2L73.76,86a1,1,0,0,0-.71-1.71H59a1,1,0,0,0-1,1V99.37a1,1,0,0,0,1.71.71l4.16-4.16A23.23,23.23,0,0,0,80.61,103a23.46,23.46,0,0,0,22.73-17.62,1,1,0,0,0-1-1.25Z"/></g></g></svg>