<svg xmlns="http://www.w3.org/2000/svg" viewBox="0 0 110 110"><defs><style>.cls-1{fill:#ff9aa2;stroke:#fff;stroke-miterlimit:10;stroke-width:10px;}.cls-2{fill:#fff;}.cls-3{fill:#ea8896;}</style></defs><title>delete_button</title><g id="Layer_2" data-name="Layer 2"><g id="Layer_1-2" data-name="Layer 1"><rect class="cls-1" x="5" y="5" width="100" height="100" rx="25" ry="25"/><rect class="cls-2" x="23" y="16" width="12.36" height="8" rx="3.93" ry="3.93" transform="translate(58.36 40) rotate(180)"/><rect class="cls-2" x="40.45" y="16" width="28.36" height="8" rx="3.93" ry="3.93" transform="translate(109.27 40) rotate(180)"/><rect class="cls-3" x="75.45" y="86" width="12.36" height="8" rx="3.93" ry="3.93"/><rect class="cls-3" x="42" y="86" width="28.36" height="8" rx="3.93" ry="3.93"/><path d="M40.5,42h29a2.5,2.5,0,0,0,0-5H64V34.5A2.5,2.5,0,0,0,61.5,32h-13A2.5,2.5,0,0,0,46,34.5V37H40.5a2.5,2.5,0,0,0,0,5Z"/><path d="M67,46H43a5,5,0,0,0-5,5l2,11c0,5.52,4.48,12,10,12H60c5.52,0,10-6.48,10-12l2-11A5,5,0,0,0,67,46ZM48.59,70l-.18,0a1.5,1.5,0,0,1-1.62-1.36L45.22,50.67A1.5,1.5,0,0,1,46.59,49l.18,0a1.5,1.5,0,0,1,1.63,1.36L50,68.33A1.5,1.5,0,0,1,48.59,70Zm8-1.45a1.5,1.5,0,0,1-1.5,1.5h-.18a1.5,1.5,0,0,1-1.5-1.5v-18a1.5,1.5,0,0,1,1.5-1.5h.18a1.5,1.5,0,0,1,1.5,1.5Zm6.62.1A1.5,1.5,0,0,1,61.58,70l-.18,0A1.5,1.5,0,0,1,60,68.33L61.61,50.4A1.5,1.5,0,0,1,63.24,49l.18,0a1.5,1.5,0,0,1,1.36,1.63Z"/></g></g></svg>